<?xml version="1.0" encoding="utf-8"?>
<svg viewBox="0 0 250 350" xmlns="http://www.w3.org/2000/svg">
  <g id="OBJECTS" transform="matrix(1.902749, 0, 0, 1.711026, -86.760162, -191.814041)" >
    <g id="XMLID_184_" transform="matrix(1, 0, 0, 1, 13.57466, 70.701355)">
      <g id="XMLID_173_">
        <path id="XMLID_382_" d="M162.71,233.443c1.791-4.341-0.327-10.417-1.055-14.711c-1.468-8.658-4.436-17.098-9.21-24.498 c-3.351-5.193-7.525-9.857-12.443-13.611c-10.518-8.029-25.47-15.066-38.918-14.877c-7.104,0.1-14.334,0.434-21.272,2.069 c-12.103,2.853-23.342,9.485-31.656,18.735c-9.654,10.742-15.186,24.773-15.734,39.177c-0.245,3.494-0.767,6.637,0.012,10.471 c0.804,3.956,5.403,4.164,8.569,4.729c9.731,1.734,19.672,2.809,29.504,3.791c10.176,1.016,20.425,1.578,30.647,1.022 c10.856-0.591,21.638-2.072,32.395-3.595c5.874-0.832,11.797-1.42,17.595-2.715c3.705-0.827,9.049-1.395,11.178-5.186 C162.468,233.985,162.597,233.718,162.71,233.443z"/>
        <path id="XMLID_381_" style="fill:#ED5879;" d="M107.02,242.897c-20.288,1.169-40.498-0.115-61.025-3.352 c-3.331-0.525-7.804-0.585-10.006-3.286c-2.965-3.636-1.419-10.3-0.791-14.777c1.48-10.551,5.33-20.812,11.639-29.436 c3.769-5.151,8.386-9.664,13.641-13.29c0.805-0.556,1.625-1.092,2.457-1.607c4.187-2.594,8.7-4.658,13.402-6.123 c6.312-1.966,12.831-2.65,19.412-2.932c7.146-0.305,13.776-0.153,20.52,2.499c12.112,4.763,24.127,10.938,32.079,21.551 c4.812,6.421,8.11,13.866,10.042,21.635c0.987,3.969,1.622,8.023,1.957,12.098c0.183,2.234,1.172,5.409-0.187,7.451 c-1.355,2.034-4.883,2.336-7.081,2.852c-4.69,1.102-9.435,1.916-14.166,2.809C128.223,241.008,117.611,242.286,107.02,242.897z"/>
        <path id="XMLID_183_" style="fill:#FFFFFF;" d="M138.568,234.499c-4.974-8.004-9.992-16.01-15.429-23.711 c-4.887-6.922-10.185-13.593-16.213-19.561c-2.213,3.885-4.845,7.711-8.788,9.122c-6.302,2.256-10.264-4.493-13.024-9.387 c-13.749,14.663-25.5,31.162-34.917,48.918c-0.051,0.096-0.082,0.19-0.104,0.283c19.122,2.776,37.99,3.824,56.927,2.732 c10.59-0.61,21.202-1.889,31.892-3.907c0.715-0.135,1.43-0.268,2.145-0.401C140.239,237.219,139.411,235.855,138.568,234.499z"/>
        <g id="XMLID_172_">
          <path id="XMLID_180_" d="M52.343,204.087c-1.391,11.978-2.173,24.013-2.349,36.063c0.725,0.106,1.45,0.204,2.174,0.304 c0.168-12.152,0.951-24.288,2.354-36.368C54.683,202.697,52.503,202.708,52.343,204.087z"/>
          <path id="XMLID_178_" d="M140.608,204.087c-0.16-1.379-2.34-1.39-2.179,0c1.333,11.48,2.109,23.011,2.327,34.558 c0.724-0.134,1.447-0.268,2.171-0.402C142.698,226.83,141.926,215.433,140.608,204.087z"/>
        </g>
      </g>
      <g id="XMLID_171_">
        <g id="XMLID_156_">
          <g id="XMLID_360_">
            <g id="XMLID_364_">
              <path id="XMLID_366_" d="M61.28,129.226c-2.512-0.055-5.117,1.124-6.816,2.907c-1.545,1.622-2.521,3.781-2.665,6.02 c-0.342,5.299,3.55,10.089,8.943,10.363c4.915,0.249,9.272-3.944,9.021-8.902c-0.121-2.39-0.954-4.783-2.333-6.736 c-0.696-0.986-1.548-1.871-2.551-2.547C63.787,129.595,62.545,129.254,61.28,129.226z"/>
              <path id="XMLID_365_" style="fill:#FFFFFF;" d="M67.585,139.676c0.178,3.875-3.249,7.009-7.08,6.631 c-3.789-0.373-6.278-3.535-6.369-7.241c-0.048-1.956,0.58-3.975,1.889-5.451c1.304-1.471,3.363-2.192,5.302-2.09 c2.174,0.115,3.7,1.365,4.779,3.196C66.984,136.212,67.505,137.947,67.585,139.676z"/>
            </g>
            <g id="XMLID_361_">
              <path id="XMLID_363_" d="M130.619,130.779c-2.106-1.37-4.941-1.74-7.325-1.118c-2.168,0.565-4.134,1.886-5.436,3.714 c-3.081,4.324-2.296,10.446,2.145,13.519c4.047,2.801,9.959,1.531,12.357-2.816c1.156-2.095,1.708-4.568,1.564-6.955 c-0.072-1.205-0.33-2.406-0.827-3.509C132.556,132.413,131.68,131.469,130.619,130.779z"/>
              <path id="XMLID_362_" style="fill:#FFFFFF;" d="M130.474,142.983c-1.889,3.388-6.453,4.247-9.511,1.908 c-3.024-2.313-3.475-6.311-1.601-9.51c0.989-1.688,2.586-3.073,4.477-3.639c1.884-0.563,4.013-0.092,5.608,1.016 c1.787,1.243,2.426,3.109,2.379,5.233C131.788,139.722,131.318,141.471,130.474,142.983z"/>
            </g>
          </g>
          <g id="XMLID_355_">
            <path id="XMLID_359_" d="M127.213,109.249c-0.232-8.315-1.638-16.734-5.236-24.294c-3.84-8.069-10.369-14.678-19.01-17.396 c-7.776-2.446-16.308-2.314-23.533,1.411c-0.467,0.225-0.752,0.292-1.148,0.475C62.969,76.51,58.75,95.607,58.475,110.894 c-0.195,10.839,1.26,22.546,7.256,31.841c1.585,2.456,3.53,4.67,5.762,6.557c1.109,0.937,2.286,1.793,3.514,2.57 c1.011,0.639,2.581,0.987,2.981,2.266c0.135,0.431,0.149,0.889,0.162,1.34c0.072,2.488,0.177,4.977,0.159,7.467 c-0.021,2.904-0.483,5.819-0.483,8.706c-0.019,0.191,0.009,0.355,0.065,0.497c0.005,0.218,0.104,0.425,0.236,0.656 c3.273,5.725,11.243,24.879,16.936,24.697c11.438-0.367,15.905-23.762,15.816-24.54c-0.419-3.646-0.582-7.32-0.545-10.989 c0.018-1.835,0.087-3.669,0.197-5.5c0.055-0.916,0.121-1.831,0.197-2.746c0.111-1.341-0.002-2.118,1.201-2.903 c1.137-0.742,2.221-1.565,3.243-2.459c2.991-2.618,5.395-5.818,7.071-9.421C126.431,129.931,127.487,119.061,127.213,109.249z"/>
            <path id="XMLID_358_" style="fill:#FFFFFF;" d="M122.662,131.161c-1.952,7.448-5.747,13.752-12.037,17.932 c-0.348,0.332-0.65,0.687-0.919,1.06c-0.217,0.321-0.399,0.658-0.563,1.003c-0.297,1.06-0.522,2.13-0.64,3.227 c-0.005,0.05-0.024,0.089-0.048,0.124c-0.501,5.955-0.436,11.924,0.184,17.879c-0.943,9.16-7.858,22.22-13.11,22.222 c-5.027,0.001-12.458-17.942-15.509-22.954c-0.352-0.577,0.307-3.978,0.345-4.753c0.082-1.662,0.124-3.326,0.127-4.991 c0.005-2.763,0.244-5.83-0.949-8.46c-1.337-2.945-4.355-3.818-6.695-5.75c-2.389-1.972-4.431-4.352-6.013-7.015 c-4.228-7.119-5.675-15.651-6.081-23.813c-0.752-15.111,1.85-35.641,16.099-44.185c0.64-0.438,0.868-0.58,1.318-0.867 c6.508-4.156,14.381-4.535,21.907-2.784c7.494,1.743,13.701,6.448,17.771,12.934c3.998,6.37,5.985,13.821,6.791,21.245 C125.645,112.464,125.023,122.156,122.662,131.161z"/>
            <path id="XMLID_165_" style="fill:#D3DCDF;" d="M123.859,125.733c1.344-7.403,1.587-15.102,0.782-22.517 c-0.806-7.424-2.793-14.875-6.791-21.245c-4.071-6.485-10.277-11.19-17.771-12.934c-7.526-1.75-15.399-1.371-21.907,2.784 c-0.45,0.288-0.678,0.43-1.318,0.867c-14.249,8.544-16.851,29.074-16.099,44.185c0.199,4,0.651,8.089,1.555,12.057 c0.148-0.124,0.259-0.305,0.302-0.553c1.676-9.598,9.721-17.033,11.837-26.278c12.382,0.885,25.251,1.805,37.277-0.935 c0.538,2.735,1.421,5.375,2.926,7.768c1.742,2.77,4.208,4.984,5.918,7.781C122.261,119.481,123.355,122.542,123.859,125.733z"/>
            <g id="XMLID_356_">
              <path id="XMLID_357_" style="fill:#D3DCDF;" d="M108.503,154.384c0.089-0.83,0.24-1.644,0.437-2.451 c-6.872,3.464-14.828,4.418-22.415,2.487c-0.756-0.192-1.637,0.531-1.345,1.345c1.585,4.424,4.647,8.037,8.623,10.524 c4.032,2.522,9.764,4.612,14.663,4.224c-0.45-5.333-0.46-10.675-0.011-16.006 C108.479,154.473,108.498,154.434,108.503,154.384z"/>
            </g>
          </g>
          <g id="XMLID_349_">
            <path id="XMLID_353_" d="M79.288,118.768c-3.754-0.393-3.222,8.487,0.359,7.742c1.019-0.212,1.466-1.149,1.609-2.093 C81.485,122.907,81.374,118.987,79.288,118.768z"/>
            <path id="XMLID_352_" d="M106.189,118.189c-3.754-0.393-3.222,8.487,0.359,7.742c1.019-0.212,1.466-1.149,1.609-2.093 C108.387,122.328,108.276,118.408,106.189,118.189z"/>
            <path id="XMLID_350_" d="M96.353,123.153c-0.294-1.37-2.381-0.742-2.088,0.624c0.522,2.434,0.617,4.9,0.268,7.366 c-0.195,1.376,1.917,1.921,2.113,0.534C97.053,128.804,96.962,125.991,96.353,123.153z"/>
            <path id="XMLID_3_" d="M96.862,137.908c-4.62,1.346-9.481,0.01-12.775-3.497c-0.962-1.024-2.501,0.519-1.541,1.541 c3.808,4.054,9.557,5.613,14.895,4.057C98.785,139.618,98.213,137.514,96.862,137.908z"/>
          </g>
        </g>
        <g id="XMLID_4_">
          <g id="XMLID_2_">
            <path id="XMLID_101_" d="M143.146,64.858c-0.569-2.545-3.584-3.667-5.894-3.795c-1.078-0.059-2.142,0.059-3.186,0.298 c1.043-0.866,2.489-1.746,3.137-2.976c1.215-2.304-0.829-4.197-2.843-4.966c-3.88-1.481-8.188-1.244-12.045,0.189 c1.317-1.74,2.472-3.589,3.223-5.506c1.2-3.064,0.015-6.125-3.629-5.874c-6.004,0.414-11.867,2.864-16.769,6.468 c0.89-1.407,2.14-2.968,2.474-4.569c0.654-3.135-2.508-2.982-4.58-2.368c-4.671,1.384-8.17,4.887-11.13,8.696 c0.005-0.908-0.132-1.758-0.516-2.412c-1.204-2.049-3.103-0.093-4.08,1.002c-2.056,2.305-3.897,4.79-5.896,7.144 c-2.071,2.438-4.379,4.572-6.773,6.685c-4.295,3.791-7.811,7.937-10.27,13.149c-1.765,3.741-3.059,7.732-3.951,11.769 c-1.09,4.934-0.638,8.091,4.885,9.239c3.991,0.83,8.245,0.896,12.304,1.104c8.997,0.461,18.015,0.347,27.012-0.056 c4.575-0.205,9.147-0.486,13.716-0.806c3.52-0.247,6.441-0.078,8.298-3.457c1.989-3.619,4.265-6.909,7.088-9.935 c2.289-2.455,4.792-4.89,6.198-7.994c0.586-1.293,1.575-4.83,0.109-5.675C141.668,68.803,143.642,67.074,143.146,64.858z"/>
            <path id="XMLID_102_" d="M138.869,68.273c-3.219,3.02-6.627,5.863-8.633,9.882c-0.623,1.249,1.133,2.299,1.882,1.1 c1.1-1.762,2.382-3.365,3.916-4.77c0.304-0.278,2.468-2.182,2.614-2.036c0.262,0.262-0.367,1.722-0.48,2.013 c-1.287,3.316-4.092,5.805-6.441,8.365c-2.401,2.617-4.528,5.477-6.268,8.576c-0.647,1.152-1.112,2.593-2.423,3.207 c-0.96,0.45-2.376,0.319-3.418,0.394c-2.141,0.153-4.282,0.299-6.425,0.433c-8.709,0.544-17.435,0.896-26.162,0.804 c-4.286-0.045-8.571-0.197-12.848-0.487c-2.21-0.15-4.431-0.3-6.631-0.566c-0.99-0.12-1.989-0.273-2.942-0.576 c-0.263-0.084-1.951-0.918-2.395-1.065c0.111-0.468-0.056-1.012-0.502-1.259c1.544-8.375,4.126-16.961,9.878-23.453 c2.925-3.301,6.558-5.872,9.57-9.087c1.583-1.69,3.025-3.504,4.476-5.307c0.726-0.902,1.452-1.805,2.201-2.688 c0.47-0.555,1.101-1.582,1.808-2.122c0.383,1.421-0.452,4.102-0.755,5.065c-0.391,1.242,1.317,1.803,1.991,0.84 c2.673-3.816,5.561-7.841,9.628-10.285c0.976-0.587,2.009-1.065,3.103-1.39c0.616-0.183,1.021-0.498,1.392,0.089 c0.391,0.618-0.349,1.281-0.676,1.831c-1.573,2.648-3.146,5.296-4.718,7.943c-0.621,1.045,0.864,2.251,1.711,1.32 c4.333-4.761,9.9-8.21,16.147-9.824c1.37-0.354,3.323-0.988,4.749-0.841c2.644,0.273,1.549,2.631,0.667,4.177 c-1.738,3.045-3.901,5.818-6.31,8.358c-0.981,1.034,0.477,2.428,1.541,1.541c3.568-2.977,8.319-4.348,12.924-3.631 c0.975,0.152,2.458,0.334,3.263,0.943c1.546,1.169,0.228,2.36-0.861,3.277c-2.062,1.738-4.124,3.476-6.187,5.213 c-0.982,0.828,0.27,2.262,1.32,1.711c2.442-1.282,5.137-2.693,7.961-2.74c1.319-0.022,2.981,0.222,3.891,1.271 C141.715,65.988,139.885,67.32,138.869,68.273z"/>
          </g>
          <g id="XMLID_23_">
            <path id="XMLID_105_" d="M126.08,91.404c-0.515-1.8-4.078-0.578-5.081-0.3c-1.065,0.295-2.113,0.667-3.154,1.062 c-0.296,0.112-0.88,0.215-1.12,0.442c-0.67,0.631-0.32,0.892-0.646,1.703c-0.059,0.147-0.09,0.321-0.07,0.532 c0.481,5.371,0.103,11.924,3.06,16.368c3.406,5.118,4.288,12.72,5.172,18.991c0.161,1.142,1.529,0.923,1.794,0 C129.641,117.644,129.657,103.976,126.08,91.404z"/>
            <path id="XMLID_106_" d="M125.337,125.24c-0.299-1.693-0.632-3.377-1.009-5.051c-0.605-2.689-1.182-5.584-2.377-8.016 c-0.524-1.065-1.242-1.954-1.848-2.951c-0.848-1.395-1.174-2.878-1.353-4.563c-0.347-3.263-0.589-6.546-0.882-9.816 c-0.015-0.167-0.056-0.313-0.116-0.44c2.149-0.81,4.617-0.904,6.857-1.211C127.369,103.626,127.613,114.696,125.337,125.24z"/>
          </g>
          <g id="XMLID_99_">
            <path id="XMLID_104_" d="M69.71,96.054c0.102-1.863,0.22-3.891-0.843-5.578c-1.581-2.51-5.102-3.088-7.663-1.387 c-2.657,1.764-3.398,7.01-3.991,9.709c-0.847,3.856-1.203,7.787-1.355,11.709c-0.262,6.745,0.765,13.617,4.953,19.379 c0.681,0.937,2.181,0.524,2.275-0.55c0.444-5.102,1.124-10.218,2.291-15.232c0.58-2.491,1.861-4.297,3.098-6.523 c0.923-1.661,1.204-3.506,1.247-5.341C69.771,100.176,69.597,98.12,69.71,96.054z"/>
            <path id="XMLID_108_" d="M67.222,99.351c0.037,1.433,0.151,2.881-0.024,4.31c-0.258,2.117-1.416,3.501-2.483,5.296 c-1.692,2.847-2.092,6.256-2.644,9.395c-0.427,2.428-0.77,4.866-1.05,7.31c-2.362-4.714-2.924-9.952-2.722-15.155 c0.257-6.602,1.085-13.639,4.21-19.698c0.284,0.009,0.579-0.067,0.848-0.273c2.536-1.945,3.926,2.271,3.986,3.617 C67.419,95.878,67.177,97.619,67.222,99.351z"/>
          </g>
        </g>
      </g>
    </g>
    <g id="XMLID_256_"/>
  </g>
</svg>